<svg width="150" height="27" viewBox="0 0 150 27" fill="none" xmlns="http://www.w3.org/2000/svg">
<path d="M12.0937 1.88C14.3017 1.88 16.2457 2.228 17.9257 2.924C19.6297 3.596 21.1057 4.592 22.3537 5.912L19.3657 9.908C18.3337 8.828 17.2177 8.024 16.0177 7.496C14.8417 6.944 13.4977 6.668 11.9857 6.668C11.0977 6.668 10.3777 6.764 9.82573 6.956C9.27373 7.148 8.87773 7.412 8.63773 7.748C8.39773 8.084 8.27773 8.468 8.27773 8.9C8.27773 9.404 8.50573 9.836 8.96174 10.196C9.44173 10.532 10.2097 10.82 11.2657 11.06L15.2617 11.96C17.6377 12.512 19.3777 13.316 20.4817 14.372C21.5857 15.428 22.1377 16.832 22.1377 18.584C22.1377 20.264 21.7057 21.692 20.8417 22.868C19.9777 24.02 18.7897 24.896 17.2777 25.496C15.7657 26.072 14.0377 26.36 12.0937 26.36C10.5097 26.36 8.99773 26.192 7.55773 25.856C6.11773 25.496 4.82173 24.992 3.66973 24.344C2.51773 23.696 1.54573 22.952 0.753734 22.112L3.74173 17.972C4.34173 18.668 5.07373 19.292 5.93773 19.844C6.82573 20.372 7.78573 20.792 8.81773 21.104C9.87373 21.416 10.9417 21.572 12.0217 21.572C12.8617 21.572 13.5577 21.488 14.1097 21.32C14.6857 21.152 15.1057 20.9 15.3697 20.564C15.6337 20.228 15.7657 19.832 15.7657 19.376C15.7657 18.872 15.5857 18.452 15.2257 18.116C14.8657 17.756 14.1817 17.456 13.1737 17.216L8.78173 16.244C7.43773 15.932 6.23773 15.524 5.18173 15.02C4.14973 14.492 3.33373 13.796 2.73373 12.932C2.13373 12.044 1.83373 10.94 1.83373 9.62C1.83373 8.132 2.24173 6.812 3.05773 5.66C3.87373 4.484 5.04973 3.56 6.58573 2.888C8.12173 2.216 9.95774 1.88 12.0937 1.88ZM34.3609 26.36C32.3689 26.36 30.6409 25.988 29.1769 25.244C27.7369 24.5 26.6209 23.432 25.8289 22.04C25.0369 20.648 24.6409 18.968 24.6409 17C24.6409 15.032 25.0369 13.352 25.8289 11.96C26.6209 10.568 27.7249 9.5 29.1409 8.756C30.5809 8.012 32.2249 7.64 34.0729 7.64C35.9689 7.64 37.5769 8.012 38.8969 8.756C40.2409 9.476 41.2609 10.484 41.9569 11.78C42.6529 13.052 43.0009 14.516 43.0009 16.172C43.0009 16.604 42.9889 17.036 42.9649 17.468C42.9409 17.9 42.9049 18.26 42.8569 18.548H28.6009V15.272H40.1569L37.2409 16.388C37.2409 14.948 36.9769 13.844 36.4489 13.076C35.9449 12.308 35.1529 11.924 34.0729 11.924C33.3049 11.924 32.6449 12.104 32.0929 12.464C31.5649 12.824 31.1569 13.388 30.8689 14.156C30.6049 14.924 30.4729 15.908 30.4729 17.108C30.4729 18.284 30.6289 19.244 30.9409 19.988C31.2529 20.708 31.6969 21.236 32.2729 21.572C32.8489 21.884 33.5449 22.04 34.3609 22.04C35.2729 22.04 35.9929 21.86 36.5209 21.5C37.0729 21.14 37.4809 20.636 37.7449 19.988L42.6409 21.608C42.3049 22.64 41.7169 23.516 40.8769 24.236C40.0609 24.932 39.0769 25.46 37.9249 25.82C36.7969 26.18 35.6089 26.36 34.3609 26.36ZM46.4245 26V8H51.8245L52.0765 11.888C52.5325 10.544 53.2045 9.5 54.0925 8.756C55.0045 8.012 56.1565 7.64 57.5485 7.64C58.0045 7.64 58.3885 7.676 58.7005 7.748C59.0365 7.82 59.3005 7.916 59.4925 8.036L58.8805 13.076C58.6405 12.98 58.3285 12.908 57.9445 12.86C57.5845 12.788 57.1405 12.752 56.6125 12.752C55.8925 12.752 55.2205 12.908 54.5965 13.22C53.9725 13.532 53.4685 14 53.0845 14.624C52.7245 15.224 52.5445 15.992 52.5445 16.928V26H46.4245ZM73.5933 8H79.9293L73.4493 26H66.1413L59.6613 8H66.1053L69.8133 21.716L73.5933 8ZM85.133 5.912C83.885 5.912 82.973 5.684 82.397 5.228C81.845 4.748 81.569 4.004 81.569 2.996C81.569 1.964 81.845 1.22 82.397 0.763999C82.973 0.283999 83.885 0.0439994 85.133 0.0439994C86.357 0.0439994 87.257 0.283999 87.833 0.763999C88.409 1.22 88.697 1.964 88.697 2.996C88.697 4.004 88.409 4.748 87.833 5.228C87.257 5.684 86.357 5.912 85.133 5.912ZM88.193 8V26H82.073V8H88.193ZM101.082 7.64C102.906 7.64 104.418 7.904 105.618 8.432C106.842 8.936 107.79 9.62 108.462 10.484C109.158 11.324 109.59 12.236 109.758 13.22L104.106 15.092C103.938 14.06 103.626 13.292 103.17 12.788C102.738 12.26 102.102 11.996 101.262 11.996C100.494 11.996 99.8455 12.176 99.3175 12.536C98.8135 12.872 98.4295 13.424 98.1655 14.192C97.9015 14.936 97.7695 15.896 97.7695 17.072C97.7695 18.248 97.9135 19.208 98.2015 19.952C98.4895 20.672 98.8975 21.2 99.4255 21.536C99.9535 21.848 100.578 22.004 101.298 22.004C101.898 22.004 102.39 21.896 102.774 21.68C103.182 21.44 103.518 21.104 103.782 20.672C104.046 20.24 104.214 19.712 104.286 19.088L109.794 20.852C109.626 21.908 109.17 22.856 108.426 23.696C107.706 24.512 106.746 25.16 105.546 25.64C104.346 26.12 102.942 26.36 101.334 26.36C99.3655 26.36 97.6495 26 96.1855 25.28C94.7215 24.536 93.5935 23.468 92.8015 22.076C92.0095 20.66 91.6135 18.968 91.6135 17C91.6135 15.032 92.0095 13.352 92.8015 11.96C93.5935 10.544 94.6975 9.476 96.1135 8.756C97.5535 8.012 99.2095 7.64 101.082 7.64ZM121.759 26.36C119.767 26.36 118.039 25.988 116.575 25.244C115.135 24.5 114.019 23.432 113.227 22.04C112.435 20.648 112.039 18.968 112.039 17C112.039 15.032 112.435 13.352 113.227 11.96C114.019 10.568 115.123 9.5 116.539 8.756C117.979 8.012 119.623 7.64 121.471 7.64C123.367 7.64 124.975 8.012 126.295 8.756C127.639 9.476 128.659 10.484 129.355 11.78C130.051 13.052 130.399 14.516 130.399 16.172C130.399 16.604 130.387 17.036 130.363 17.468C130.339 17.9 130.303 18.26 130.255 18.548H115.999V15.272H127.555L124.639 16.388C124.639 14.948 124.375 13.844 123.847 13.076C123.343 12.308 122.551 11.924 121.471 11.924C120.703 11.924 120.043 12.104 119.491 12.464C118.963 12.824 118.555 13.388 118.267 14.156C118.003 14.924 117.871 15.908 117.871 17.108C117.871 18.284 118.027 19.244 118.339 19.988C118.651 20.708 119.095 21.236 119.671 21.572C120.247 21.884 120.943 22.04 121.759 22.04C122.671 22.04 123.391 21.86 123.919 21.5C124.471 21.14 124.879 20.636 125.143 19.988L130.039 21.608C129.703 22.64 129.115 23.516 128.275 24.236C127.459 24.932 126.475 25.46 125.323 25.82C124.195 26.18 123.007 26.36 121.759 26.36ZM141.383 26.36C139.583 26.36 137.903 26.072 136.343 25.496C134.807 24.896 133.535 24.044 132.527 22.94L135.407 19.556C136.007 20.324 136.799 20.972 137.783 21.5C138.791 22.004 139.907 22.256 141.131 22.256C141.875 22.256 142.487 22.148 142.967 21.932C143.447 21.716 143.687 21.38 143.687 20.924C143.687 20.588 143.567 20.324 143.327 20.132C143.087 19.916 142.607 19.736 141.887 19.592L139.367 19.088C137.111 18.632 135.503 17.96 134.543 17.072C133.607 16.16 133.139 14.972 133.139 13.508C133.139 12.524 133.439 11.588 134.039 10.7C134.639 9.788 135.563 9.056 136.811 8.504C138.059 7.928 139.655 7.64 141.599 7.64C143.423 7.64 145.031 7.904 146.423 8.432C147.815 8.96 148.919 9.728 149.735 10.736L146.819 14.048C146.243 13.328 145.499 12.764 144.587 12.356C143.675 11.948 142.763 11.744 141.851 11.744C141.275 11.744 140.783 11.804 140.375 11.924C139.991 12.02 139.703 12.164 139.511 12.356C139.319 12.548 139.223 12.788 139.223 13.076C139.223 13.388 139.367 13.664 139.655 13.904C139.967 14.12 140.531 14.312 141.347 14.48L144.623 15.128C146.471 15.464 147.803 16.076 148.619 16.964C149.435 17.852 149.843 18.92 149.843 20.168C149.843 21.344 149.531 22.4 148.907 23.336C148.283 24.272 147.347 25.016 146.099 25.568C144.851 26.096 143.279 26.36 141.383 26.36Z" fill="#292E3D"/>
</svg>
